<svg width="800" height="600" xmlns="http://www.w3.org/2000/svg">
<rect width="100%" height="100%" fill="#ffffff"/>
<text x="400" y="50" text-anchor="middle" font-family="sans-serif" font-size="24" font-weight="bold">SIMD Pade Cosine Performance</text>
<text x="400" y="75" text-anchor="middle" font-family="sans-serif" font-size="14" fill="#666">Block Size: 512 samples | Average of 1,000,000 iterations</text>
<line x1="100" y1="500.0" x2="700" y2="500.0" stroke="#eee" />
<text x="90" y="505.0" text-anchor="end" font-family="sans-serif" font-size="12" fill="#999">0.0 us</text>
<line x1="100" y1="400.0" x2="700" y2="400.0" stroke="#eee" />
<text x="90" y="405.0" text-anchor="end" font-family="sans-serif" font-size="12" fill="#999">0.7 us</text>
<line x1="100" y1="300.0" x2="700" y2="300.0" stroke="#eee" />
<text x="90" y="305.0" text-anchor="end" font-family="sans-serif" font-size="12" fill="#999">1.3 us</text>
<line x1="100" y1="200.0" x2="700" y2="200.0" stroke="#eee" />
<text x="90" y="205.0" text-anchor="end" font-family="sans-serif" font-size="12" fill="#999">2.0 us</text>
<line x1="100" y1="100.0" x2="700" y2="100.0" stroke="#eee" />
<text x="90" y="105.0" text-anchor="end" font-family="sans-serif" font-size="12" fill="#999">2.7 us</text>
<rect x="140" y="100.0" width="150" height="400.0" fill="#3498db" rx="5"/>
<text x="215" y="90.0" text-anchor="middle" font-family="sans-serif" font-size="14" font-weight="bold" fill="#3498db">2.682 us</text>
<text x="215" y="525" text-anchor="middle" font-family="sans-serif" font-size="14" font-weight="bold">std::cos</text>
<text x="215" y="545" text-anchor="middle" font-family="sans-serif" font-size="12" fill="#666">Baseline</text>
<rect x="370" y="452.21716730933196" width="150" height="47.782832690668045" fill="#e74c3c" rx="5"/>
<text x="445" y="442.21716730933196" text-anchor="middle" font-family="sans-serif" font-size="14" font-weight="bold" fill="#e74c3c">0.320 us</text>
<text x="445" y="525" text-anchor="middle" font-family="sans-serif" font-size="14" font-weight="bold">Pade Cos (Scalar)</text>
<text x="445" y="545" text-anchor="middle" font-family="sans-serif" font-size="12" fill="#666">8.4x faster</text>
<rect x="600" y="454.1522093382629" width="150" height="45.84779066173712" fill="#2ecc71" rx="5"/>
<text x="675" y="444.1522093382629" text-anchor="middle" font-family="sans-serif" font-size="14" font-weight="bold" fill="#2ecc71">0.307 us</text>
<text x="675" y="525" text-anchor="middle" font-family="sans-serif" font-size="14" font-weight="bold">Pade Cos (SIMD)</text>
<text x="675" y="545" text-anchor="middle" font-family="sans-serif" font-size="12" fill="#666">8.7x faster</text>
<line x1="100" y1="500" x2="700" y2="500" stroke="#ccc" stroke-width="2"/>
</svg>
